# xmcd
#
# Track frame offsets:
#	150
#	23775
#	34525
#	45100
#	65625
#	101425
#	111350
#	125350
#	146275
#	169750
#	193500
#	204875
#	228275
#	255150
#	272937
# Disc length: 3862 seconds
# Revision: 1
# Processed by: cddbd v1.5.1PL0 Copyright (c) Steve Scherf et al.
#
# Submitted via: libkcddb 0.10
#
DISCID=bd0f140f
DTITLE=Blues Harmonica Greats - Hot Harp
DYEAR=1900
DGENRE=
TTITLE0=In my younger days (Junior Wells)
TTITLE1=Mighty Mars (Johny Mars)
TTITLE2=Harpoon man (Paul DeLay)
TTITLE3=She's 19 years old (Muddy Waters Band)
TTITLE4=Walter's swing (Walter Horton)
TTITLE5=Fox chase (Sonny Terry)
TTITLE6=Baby please don't go (Doctor Ross)
TTITLE7=85% (Carey Bell)
TTITLE8=Picking Rags (Mojo Buford)
TTITLE9=Onion blues (Brendan Power)
TTITLE10=Blue midnight (Little Walter)
TTITLE11=Small room (Charlie Sayles)
TTITLE12=Every night (Harmonica Hinds)
TTITLE13=Somebody (Rod Piazza)
TTITLE14=Trouble no more (Charlie Musselwhite)
EXTD=
EXTT0=
EXTT1=
EXTT2=
EXTT3=
EXTT4=
EXTT5=
EXTT6=
EXTT7=
EXTT8=
EXTT9=
EXTT10=
EXTT11=
EXTT12=
EXTT13=
EXTT14=
PLAYORDER=
